<svg xmlns="http://www.w3.org/2000/svg" width="20" height="20" viewBox="0 0 20 20"><defs><style>.a{fill:#b7bacd;opacity:0.702;}</style></defs><path class="a" d="M722.946,186.765l.024.006-2.5,11.25-.024-.006a1.232,1.232,0,0,1-1.2.984h-12.5a1.232,1.232,0,0,1-1.2-.984l-.024.006-2.5-11.25.024-.006A1.184,1.184,0,0,1,703,186.5a1.25,1.25,0,0,1,1.25-1.25h2.5a6.25,6.25,0,1,1,12.5,0h2.5A1.25,1.25,0,0,1,723,186.5,1.191,1.191,0,0,1,722.946,186.765ZM713,181.5a3.75,3.75,0,0,0-3.75,3.75h7.5A3.75,3.75,0,0,0,713,181.5Zm5,8.75a1.25,1.25,0,0,1-1.25-1.25v-1.25h-7.5V189a1.25,1.25,0,1,1-2.5,0v-1.25h-.942l1.944,8.75h10.495l1.945-8.75h-.942V189A1.25,1.25,0,0,1,718,190.25Z" transform="translate(-703 -178.999)"/></svg>