<svg xmlns="http://www.w3.org/2000/svg" width="18.986" height="21.014" viewBox="0 0 18.986 21.014"><defs><style>.a{fill:#b7bacd;opacity:0.702;}</style></defs><path class="a" d="M543.993,190.308a4.8,4.8,0,0,1-4.747,4.849,4.656,4.656,0,0,1-3.774-1.957l-.023.018-.949-1.293-.949,1.293-.013-.01a4.693,4.693,0,0,1-3.784,1.949,4.8,4.8,0,0,1-4.746-4.849,4.878,4.878,0,0,1,.962-2.9l-.013-.01s6.962-8.406,8.544-8.406,8.544,8.406,8.544,8.406l-.013.01A4.877,4.877,0,0,1,543.993,190.308Zm-11.075,6.465v-1.617a1.582,1.582,0,1,1,3.164,0v1.617a1.617,1.617,0,0,1,0,3.233h-3.164a1.617,1.617,0,0,1,0-3.233Z" transform="translate(-525.007 -178.992)"/></svg>