<svg xmlns="http://www.w3.org/2000/svg" width="19.242" height="18.151" viewBox="0 0 19.242 18.151"><defs><style>.a{fill:#ffdd3f;}</style></defs><path class="a" d="M299.335,594.3l4.716-2.235,4.815,2.26c-.607-.285,1.565,1.24,1.365-.877l-.5-5.306,3.487-3.884c-.56.623,1.54-1.079-.414-1.448-1.977-.372-5.52-.634-5.52-.634s-1.409-3.255-2.449-5.055c.484.838-.548-1.851-1.586-.039s-2.544,5.108-2.544,5.108-3.436.268-5.414.647c.775-.148-1.81-.08-.5,1.375l3.57,3.953-.484,5.319C297.925,592.961,297.2,595.313,299.335,594.3Z" transform="translate(-294.412 -576.443)"/></svg>