<svg xmlns="http://www.w3.org/2000/svg" width="22.4" height="22.4" viewBox="0 0 22.4 22.4"><defs><style>.a{fill:#fff;}</style></defs><path class="a" d="M362.4,197h-3.62l-3.79,3.79h0a1.4,1.4,0,0,1-1.98,0h0L349.22,197H345.6a2.8,2.8,0,0,1-2.8-2.8V181.6a2.8,2.8,0,0,1,2.8-2.8h16.8a2.8,2.8,0,0,1,2.8,2.8v12.6A2.8,2.8,0,0,1,362.4,197Zm0-14a1.4,1.4,0,0,0-1.4-1.4H347a1.4,1.4,0,0,0-1.4,1.4v9.8a1.4,1.4,0,0,0,1.4,1.4h2.8a1.4,1.4,0,0,1,.99.41h0l3.21,3.21,3.21-3.21h0a1.4,1.4,0,0,1,.99-.41H361a1.4,1.4,0,0,0,1.4-1.4Zm-4.2,8.4h-8.4a1.4,1.4,0,0,1,0-2.8h8.4a1.4,1.4,0,0,1,0,2.8Zm0-4.2h-8.4a1.4,1.4,0,1,1,0-2.8h8.4a1.4,1.4,0,1,1,0,2.8Z" transform="translate(-342.8 -178.8)"/></svg>